<svg xmlns="http://www.w3.org/2000/svg" width="512" height="512" viewBox="0 0 512 512">
  <!-- Фон круга -->
  <circle cx="256" cy="256" r="250" fill="#A7C6ED"/>
  
  <!-- Сегменты мяча -->
  <path d="M256,106 L316,166 L256,226 L196,166 Z" fill="#F1F1F1"/>
  <path d="M196,166 L256,226 L196,286 L136,226 Z" fill="#F1F1F1"/>
  <path d="M136,226 L196,286 L136,346 L76,286 Z" fill="#F1F1F1"/>
  <path d="M76,286 L136,346 L76,406 L16,346 Z" fill="#F1F1F1"/>
  <path d="M16,346 L76,406 L16,466 L-44,406 Z" fill="#F1F1F1"/>
  
  <!-- Центральные элементы -->
  <path d="M256,106 L316,166 L256,226 L196,166 Z" fill="#F1F1F1"/>
  <path d="M256,226 L316,286 L256,346 L196,286 Z" fill="#F1F1F1"/>
  
  <!-- Внешний контур мяча -->
  <circle cx="256" cy="256" r="240" stroke="#003B5C" stroke-width="8" fill="none"/>
</svg>